<?xml version="1.0" standalone="no"?><!DOCTYPE svg PUBLIC "-//W3C//DTD SVG 1.1//EN" "http://www.w3.org/Graphics/SVG/1.1/DTD/svg11.dtd"><svg t="1753945572133" class="icon" viewBox="0 0 1024 1024" version="1.1" xmlns="http://www.w3.org/2000/svg" p-id="3634" xmlns:xlink="http://www.w3.org/1999/xlink" width="200" height="200"><path d="M756.736 679.808l0.096-0.112L561.168 512l195.648-167.696-0.096-0.112c6.848-5.872 11.28-14.48 11.28-24.192a31.84 31.84 0 0 0-11.264-24.192l0.096-0.112-224-192-0.096 0.112C527.136 99.008 519.952 96 512 96a32 32 0 0 0-32 32v314.416l-171.168-146.72-0.096 0.112c-5.6-4.8-12.784-7.808-20.736-7.808a32 32 0 0 0-32 32c0 9.712 4.432 18.32 11.264 24.192l-0.096 0.112L462.832 512 267.168 679.696l0.096 0.112A31.84 31.84 0 0 0 256 704a32 32 0 0 0 32 32c7.952 0 15.136-3.008 20.736-7.808l0.096 0.112L480 581.584V896a32 32 0 0 0 32 32c7.952 0 15.136-3.008 20.736-7.808l0.096 0.112 224-192-0.096-0.112A31.84 31.84 0 0 0 768 704a31.84 31.84 0 0 0-11.264-24.192zM686.832 704L544 826.416V581.584L686.832 704zM544 442.416V197.584L686.832 320 544 442.416z" fill="#000000" p-id="3635"></path></svg>